<svg id="Layer_1" data-name="Layer 1" xmlns="http://www.w3.org/2000/svg" viewBox="0 0 1000 177.33">
    <title>nespresso</title>
    <path
        d="M569.44,142.34c-.12-.21-.24-.44-.35-.67l-3.66-6.92c-7.82-14.62-14.09-26.86-21-42.72a18.31,18.31,0,0,1,2.61-1.25c10.92-5.21,18.15-14.63,18-31-.53-20-18.81-29.91-34.77-29.9h-59.8V147.83h30.06V99.11h17.09c5.71,9.51,17.31,36.53,19.13,40.77l3.54,8h32ZM532,78.38c-7.06,8.47-21.65,7.85-31.75,7.82V43S526,39.15,533,51.49C536.68,58.4,537.13,71.4,532,78.38Z"
        transform="translate(0 0)" fill="#fff"/>
    <path
        d="M458.49,51.73c-4.91-14.41-15.64-21.82-31.35-21.81h-59V147.83H398V104.62s42.66,2.35,54.7-13.57C461.68,80.78,462.19,64.4,458.49,51.73ZM430.52,83c-7,8.25-22.42,8.15-32.68,7.44l.1-47.28s26.56-3.72,33.58,8.36C435.55,58.77,436.51,75,430.52,83Z"
        transform="translate(0 0)" fill="#fff"/>
    <path
        d="M75.09,37c11.45,13.08,38.84,50,38.84,50,14.1,18.18,32.95,48.4,51.6,63.63V29.92H148.87V90.74c-11.71-14.94-25.44-34-35.72-46.12-4.53-5.42-16.23-18.08-19.54-20.87C72.17,2.85,32.83-6.52,0,5V6.09c11.28-2.41,25.84-1.53,40.17,4.19C50.88,14.25,66.25,26.16,75.09,37Z"
        transform="translate(0 0)" fill="#fff"/>
    <path
        d="M176.58,167.05c-10.71-4-26.08-15.88-34.92-26.75-11.45-13.08-38.84-50-38.84-50C88.72,72.16,69.87,42,51.22,26.72V147.84H67.87V86.59c11.72,14.94,25.45,34,35.73,46.12,4.54,5.42,16.23,18.08,19.54,20.87,21.44,20.89,60.78,30.26,93.61,18.81v-1.16C205.47,173.65,190.91,172.77,176.58,167.05Z"
        transform="translate(0 0)" fill="#fff"/>
    <path d="M262.94,43.12l.1-13.2H182.31V147.83H263l-.1-13.19c-15.46.39-34.88,2.84-50.79,1.28V93.58a303.71,303.71,0,0,1,40.53.66v-14c-12.18,1.55-27.53,1.43-40.53.63v-39C228.06,40.28,247.48,42.83,262.94,43.12Z" transform="translate(0 0)" fill="#fff"/>
    <path
        d="M346.42,90.54C332.78,78.73,316.22,75,304.55,67c-8.21-6.31-6.95-14.48-2.79-18.89,9.82-10.95,30.32-5.78,35.09-4.67,6,1.78,9.28,3.67,15,6.24V34.92c-24.44-7.14-63.57-13.94-79,10.67-5.67,10.12-7.15,28.5,9.18,39.17,16.46,13.09,43.47,19.35,46.84,29.91,2.07,5.78-.43,11.3-4.31,15.22-14.61,13.56-38,5.05-53.18-1.67l0,14.59c16.38,7.35,37.11,9.22,55.49,5.26,12.62-2.81,26.74-13.92,29-27.62C358.19,106.92,355.33,98.1,346.42,90.54Z"
        transform="translate(0 0)" fill="#fff"/>
    <path
        d="M913.48,28.16c-7.8-.06-58.35.77-58.57,60.27,0,59.07,49.9,61.41,58.57,61.36s58.58-2.29,58.43-61.36C971.83,28.93,921.33,28.1,913.48,28.16Zm.19,105.19h-.43c-3.29,0-27.44,1-27.27-47.19.19-44.71,23.66-43.45,27.54-43.44S940.83,41.45,941,86.16C941.2,134.37,917,133.35,913.67,133.35Z"
        transform="translate(0 0)" fill="#fff"/>
    <path
        d="M746.72,90.54C733.08,78.73,716.52,75,704.85,67c-8.2-6.31-7-14.48-2.79-18.89,9.82-10.95,30.32-5.78,35.09-4.67,6,1.78,9.28,3.67,15,6.24V34.92c-24.43-7.14-63.57-13.94-79,10.67-5.67,10.12-7.14,28.5,9.18,39.17,16.47,13.09,43.47,19.35,46.84,29.91,2.07,5.78-.43,11.3-4.31,15.22-14.61,13.56-38,5.05-53.17-1.67l0,14.59c16.38,7.35,37.11,9.22,55.49,5.26,12.62-2.81,26.74-13.92,29-27.62C758.49,106.92,755.63,98.1,746.72,90.54Z"
        transform="translate(0 0)" fill="#fff"/>
    <path
        d="M992.2,137.42c0-2.3-1.31-3-2.2-3.13v-.06a3.57,3.57,0,0,0,2.4-3.76c0-2.44-1.6-4-4.79-4h-7.14v14.8h2.62v-6.1h3.8c2.4,0,3,1.23,3,4a4.28,4.28,0,0,0,.35,2.12H993C992.4,140.7,992.2,139.16,992.2,137.42Zm-4.9-4.16h-4.21v-4.6h4.21c1.31,0,2.58.4,2.58,2.24C989.88,132.41,989,133.26,987.3,133.26Z"
        transform="translate(0 0)" fill="#fff"/>
    <path d="M985.92,120a14,14,0,1,0,14.08,14A14,14,0,0,0,985.92,120Zm0,26.65a12.65,12.65,0,1,1,12.59-12.69A12.69,12.69,0,0,1,985.92,146.6Z" transform="translate(0 0)" fill="#fff"/>
    <path
        d="M838.27,90.54C824.67,78.73,808.09,75,796.49,67c-8.23-6.31-7-14.48-2.87-18.89,9.8-10.95,30.29-5.78,35.09-4.67,6.06,1.78,9.32,3.67,15.08,6.24V34.92c-24.5-7.14-63.61-13.94-79,10.67C759,55.71,757.56,74.09,774,84.76c16.5,13.09,43.52,19.35,46.79,29.91,2.12,5.78-.32,11.3-4.33,15.22-14.54,13.56-38,5.05-53.09-1.67l-.1,14.59c16.43,7.35,37.13,9.22,55.55,5.26,12.67-2.81,26.73-13.92,29.09-27.62C850.07,106.92,847.2,98.1,838.27,90.54Z"
        transform="translate(0 0)" fill="#fff"/>
    <path d="M582.25,147.83h80.67V134.64c-15.54.39-34.94,2.84-50.81,1.28V93.58a305,305,0,0,1,40.6.66v-14c-12.3,1.55-27.61,1.43-40.64.63,0-2.5,0-39,0-39,15.87-1.64,35.27.91,50.81,1.2V29.92H582.25Z" transform="translate(0 0)" fill="#fff"/>
</svg>
