<svg version="1.1" id="logo" xmlns="http://www.w3.org/2000/svg" x="0" y="0" viewBox="0 0 330.7 70" xml:space="preserve"><path d="M124.7 66.1c-.8 2.5-.9 3 1.8 3 2.6 0 3.6-.1 5-2.4.2-.1.5 0 .5.1-.2.8-1 2.4-1.4 3h-7.8c-.9 0-1.7 0-2.4.1-.2-.1-.2-.4 0-.6l.5-.1c1.1-.2 1.3-.4 2-2.7l2.6-8.4c.7-2.1.7-2.5-.5-2.7l-.5-.1c-.1-.2-.1-.5.1-.6.9 0 1.7.1 2.6.1 1 0 1.7 0 2.8-.1.2.1.2.5 0 .6l-.7.1c-1.3.2-1.4.4-2.1 2.7l-2.5 8zm16.5-4.2c0 1.7-2.2 2.8-5.5 3.8-.2.4-.3 1.1-.3 2 0 .8.5 1.3 1.1 1.3.8 0 1.4-.5 2.4-1.3.2 0 .3.2.3.4-1.4 1.7-2.7 2.1-3.6 2.1-1.4 0-1.8-1.3-1.8-2.4 0-1.4.9-4.2 3.4-6.1 1.2-.9 2.1-1.1 2.7-1.1.8-.1 1.3.7 1.3 1.3m-3.6.4c-.9 1-1.4 2-1.7 2.6 1.5-.5 2.2-.9 3-1.7.7-.7.9-1.3.9-1.5 0-.2-.1-.5-.5-.5-.3 0-.9.2-1.7 1.1m16-4.7c.5-1.7.3-1.9-.7-2h-.7c-.2-.1-.1-.4 0-.5 1.3-.2 2.5-.3 3.8-.3 1.2 0 2.6.1 3.7.5 1.1.5 1.9 1.3 1.9 2.8 0 2.3-2.3 3.3-3.5 3.4-.4 0-.2.2 0 .2 1.4.5 2.4 1.8 2.4 3.3 0 .8-.2 2-1.2 2.9-.9.9-2.6 1.7-5.4 1.7-1.2 0-2.1-.1-3-.1-.8 0-1.6 0-2.3.1-.2-.1-.2-.4 0-.6l.5-.1c1.1-.2 1.3-.4 2-2.7l2.5-8.6zm-1.2 9.5c-.5 1.5.2 2 1.8 2 1.9 0 4.3-1.2 4.3-4.2 0-1.9-1.7-2.8-3.3-2.8-1.1 0-1.2 0-1.4.8l-1.4 4.2zm2-6.4c-.2.5-.1.7.8.7 1.6 0 4.5-.8 4.5-3.6 0-1.3-1-2.3-2.8-2.3-.9 0-.9 0-1.1.7l-1.4 4.5zm11.8 1.9l-1 2.9h.1c.7-1.3 1.8-3.1 2.4-3.8.5-.7 1.1-1.2 1.6-1.2.8 0 .9.8.9 1.1 0 .3-.2 1-.5 1.4-.3.3-.6.4-.7-.1-.1-.6-.2-.9-.5-.9-.2 0-.5.2-.8.7-1.4 1.8-2.6 4.5-3.8 7.1-.1.2-.2.3-.4.3s-.9-.1-.7-.6c.3-.9 1.7-4.9 2.3-7.1.1-.2 0-.5-.2-.5-.6 0-1.2.6-1.6 1.2-.2 0-.4-.1-.4-.4.7-1.2 1.6-2.2 2.7-2.2 1.2 0 .8 1.5.6 2.1M178 60c.4-.2 1 0 1.1.3-.3.8-2.3 5.8-3 7.9-.1.4 0 .5.2.5.4 0 1-.4 2.3-1.5.2 0 .3.1.3.3-.9 1.3-2.6 2.5-3.8 2.5-.3 0-.6-.2-.7-.6 0-.2 0-.4.2-.9l.7-2h-.1c-1.6 2-3.9 3.6-5 3.6-.6 0-1-.6-1-1.3 0-.5.5-2.3 2-4.4 1.1-1.5 2.1-2.4 3-2.9.9-.5 1.4-.7 2-.7.2 0 .4.1.5.1.1 0 .3.2.5.5l.8-1.4zm-3.9 2.6c-1.4 1.3-2.8 4.3-2.8 5.9 0 .3.1.4.3.4.2 0 .9-.3 2.2-1.5 1.7-1.6 2.7-3.5 3-4.9-.2-.4-.5-.8-1.1-.8-.5 0-.9.2-1.6.9m11.9-.8c0 .4-.2.6-.4.7-.2 0-.3 0-.4-.2-.4-.4-.7-.7-1.4-.7s-.9.6-.9.9c0 .5.1.9.8 2.1.6.9.9 1.5.9 2.5 0 .6-.3 1.4-1.2 2.2-.6.5-1.4.8-2.3.8s-1.4-.7-1.4-1.2c0-.2.1-.5.3-.7.2-.2.4-.2.6 0 .3.3 1 .9 1.6.9.5 0 1.1-.6 1.1-1.3 0-.4-.3-1.1-.8-2-.6-.9-.8-1.7-.8-2.1 0-.9.4-1.5 1.4-2.4.7-.6 1.4-.7 1.7-.7.6-.1 1.2.6 1.2 1.2m6.4 0c0 .4-.2.6-.4.7-.2 0-.3 0-.4-.2-.4-.4-.7-.7-1.4-.7s-.9.6-.9.9c0 .5.1.9.8 2.1.6.9.9 1.5.9 2.5 0 .6-.3 1.4-1.2 2.2-.6.5-1.4.8-2.3.8-.9 0-1.4-.7-1.4-1.2 0-.2.1-.5.3-.7.2-.2.4-.2.6 0 .3.3 1 .9 1.6.9.5 0 1.1-.6 1.1-1.3 0-.4-.3-1.1-.8-2-.6-.9-.8-1.7-.8-2.1 0-.9.4-1.5 1.4-2.4.7-.6 1.4-.7 1.7-.7.7-.1 1.2.6 1.2 1.2m3.4 6c-.2.5-.1.8.2.8.3 0 1.2-.7 2.4-1.9 2.1-2 3.2-4.7 4-6 .5-.1 1 .1 1.1.4-.2.6-1.7 4.3-2.6 7-.1.3-.1.6.1.6.4 0 1.6-1.1 2.2-1.8.2 0 .4 0 .4.3-.6 1.1-2.8 2.9-4 2.9-.4 0-.7-.4-.6-.8l1.5-4.1c-1.6 2.1-4.4 5-5.7 5-.9 0-1-.9-.7-1.9l2.1-5.5c.2-.4.2-.7 0-.7-.4 0-1.6 1-2.1 1.6-.2 0-.3-.1-.4-.2v-.1c.6-.9 2.8-2.7 3.9-2.7.3 0 .8.3.7.7l-2.5 6.4zm14.8-6c0 .4-.2.6-.4.7-.2 0-.3 0-.4-.2-.4-.4-.7-.7-1.4-.7s-.9.6-.9.9c0 .5.1.9.8 2.1.6.9.9 1.5.9 2.5 0 .6-.3 1.4-1.2 2.2-.6.5-1.4.8-2.3.8s-1.4-.7-1.4-1.2c0-.2.1-.5.3-.7.2-.2.4-.2.6 0 .3.3 1 .9 1.6.9.5 0 1.1-.6 1.1-1.3 0-.4-.3-1.1-.8-2-.6-.9-.8-1.7-.8-2.1 0-.9.4-1.5 1.4-2.4.7-.6 1.4-.7 1.7-.7.7-.1 1.2.6 1.2 1.2M43.6 8.6c1.6 0 3.1 1.7 3.1 4.3v20.8c0 7.6-3.1 7-6.4 7-3.3 0-3.7-3.3-3.7-7.1V13c0-2.7 1.4-4.3 3.1-4.3V7.5H28.4v1.1c1.6 0 3.1 1.7 3.1 4.3v22.5c0 4.3 2.3 7.6 7.8 7.6s8.9-.3 8.9-9.4V13c0-2.7 1.4-4.3 3.1-4.3V7.5h-7.7v1.1m238 0c1.6 0 3 1.7 3 4.3v20.8c0 7.6-3.1 7-6.4 7-3.3 0-3.7-3.3-3.7-7.1V13c0-2.7 1.4-4.3 3-4.3V7.5h-11.1v1.1c1.6 0 3 1.7 3 4.3v22.5c0 4.3 2.3 7.6 7.8 7.6s8.9-.3 8.9-9.4V13c0-2.7 1.3-4.3 3-4.3V7.5h-7.4l-.1 1.1M66.3 40.5c-.4.1-2.4.3-4 .2-1.3-.1-1.3-.3-1.3-3.2V12.6c0-2.9.7-3.6 3-3.6 2.9 0 4.1.8 5.1 3.4 1.9 4.9 1.6 14.1 1.1 21.1 0 0-.8 6.1-3.9 7m-.8-33H52.9v1.1c1.7 0 3 1.7 3 4.3v24c0 2.7-1.4 4.3-3 4.3v1.1H67c2.3 0 4.9-1.3 6.5-6 1.6-4.8 1.8-8.8 1.5-14.8-.3-6-1.3-9.7-2.7-11.5-1.3-1.7-3.5-2.5-6.8-2.5m20.9 33.2c-1.6-.2-1.8-.9-1.8-3.5V25.7c3.6.3 4 .3 4.9 5.1h1v-12h-1c-.8 4.5-1.3 4.8-4.9 5.1V12.2c0-2.6.2-3.1 1.4-3l2 .1c5 .2 5.2 3.2 5.5 4.9h1.2V7.5H76.5v1.1c1.6 0 3.1 1.7 3.1 4.3v24c0 2.7-1.4 4.3-3.1 4.3v1.1h18.6l1.4-6.3H95c-1.6 5.6-6.1 4.8-8.6 4.7m214 0c-1.6-.2-1.8-.9-1.8-3.5V25.7c3.6.3 4 .3 4.9 5.1h1v-12h-1c-.8 4.5-1.3 4.8-4.9 5.1V12.2c0-2.6.2-3.1 1.4-3l2.1.1c5 .2 5.2 3.2 5.5 4.9h1.2V7.5h-18.3v1.1c1.6 0 3 1.7 3 4.3v24c0 2.7-1.4 4.3-3 4.3v1.1H309l1.4-6.3H309c-1.5 5.6-6.1 4.8-8.6 4.7M19.6 27.4h-8.7l8.7-21.5v21.5M25.2 0h-9.6v1.1c2.5 0 2.8 1.9 1.9 3.9-3.1 8.1-11.2 28.7-12.1 30.8-1.2 2.6-2.8 5.5-5.4 5.5v1.1h9.1v-1.1c-2.1 0-2.7-3-1.7-5.5 1-2.5 2.8-6.8 2.8-6.8h9.4v7.5c0 4.6-1.6 4.8-3.9 4.8v1.1h13.5v-1.1c-1.9 0-3.9-.1-3.9-4.8 0-2.5-.1-36.5-.1-36.5m198.2 20.2c0 1.1-.4 1.7-1.2 1.7h-4.5V1.5h4.5c.8 0 1.2.7 1.2 2v16.7zM224.5 0H208v1.1c2.4 0 3.9 1.6 3.9 4.7V36c0 4.8-1.8 5.2-3.9 5.2v1.1h13.5v-1.1c-2.4 0-3.9-.5-3.9-5.2V23.6h7.2c2.3 0 4.1-1.7 4.1-5.5V5.3c.1-3.1-1.4-5.3-4.4-5.3m-111 31.9l-6.7-24.3h-8.9v1.1c2.2 0 3.1.8 3.1 4.4V37c0 2.7-1.3 4.3-3.1 4.3v1.1h7.8v-1.1c-1.8 0-3.1-1.7-3.1-4.3V12l8.5 30.4h.8l8.8-30.3V37c0 2.7-1.3 4.3-3.1 4.3v1.1H129v-1.1c-1.8 0-3.2-1.7-3.2-4.3V13c0-2.7 1.3-4.3 3.2-4.3V7.5h-8.6l-7 23.8m54.2-10.4c0 4.2-4.4 3.6-6 3.6V11.4c0-1.4.1-2.1 1.3-2.1 2.4 0 4.7-.4 4.7 2.9v8.7zm6.4 18.5l-5.8-13.7c1.8-.4 4.2-1.1 4.2-4.4 0-3.5-.1-7.1-.1-9.5 0-4.3-4-4.3-8-4.3h-10.7v1.1c1.6 0 3 1.7 3 4.3v24c0 2.7-1.8 4.3-3.1 4.3v1.1h11.2v-1.1c-1.6 0-3.1-1.7-3.1-4.3V26.1h1.7l5.7 14.3s.3.8.9 1.4c.5.5 1.7.5 1.7.5h4.2v-1.1c-.4.1-.9.3-1.8-1.8m58.3-30.8c2.1 0 3 1.7 3 4.3v24c0 2.7-1 4.3-3 4.3v1.1h11v-1.1c-2.1 0-3-1.7-3-4.3V13c0-2.7.9-4.3 3-4.3V7.5h-11v1.1m-45 12.3c-3.8-2-5.3-4.6-5.3-6.8 0-1.2.5-5.8 3.6-5.8 4.7.1 6.1 6.7 6.6 9.6h.9V7h-1c0 1.2-.5 1.5-1 1.5-1.7-.1-2.3-2.1-6.8-1.9-2.9.1-6.6 2.7-6.6 9.6 0 3.2 1.2 7.6 5.1 10.3 5.7 3.8 7.5 5.4 7.5 8.3 0 1.2-.4 6.4-4.9 6.4-3.2 0-5.3-5.3-5.7-7.3l-.7-3.6h-1v12.2h1.1c.1-1 .4-1.5.8-1.5 1.7 0 3.4 1.8 6.3 1.7 7.5-.1 8.9-6.5 8.9-10-.1-4.9-2.5-9.1-7.8-11.8m70.5 3.8v.9s1.5.1 1.5 2.6v8.1c0 4.3-1.5 4.7-4.2 4.7s-3.7-1-3.7-4.3v-24c0-2.3 1.2-4.2 4-4.2 3.1 0 6.4 3.1 6.4 9.1h1.7V7h-1.3c0 4.1-2.4-.1-6.7-.1-3.1 0-5.7.8-7.1 2.4-1.5 1.7-2.2 3.7-2.2 6.1v18.8c0 2.4.7 4.4 2.2 6 1.5 1.7 4.7 2.6 6.8 2.6 1.2 0 3-.5 3.9-.9.9-.4 1.7-1.1 2.4-1.9 1.5-1.7 2.3-3.7 2.3-6v-5.8c0-2.3 1.5-2.5 1.5-2.5v-.9c.1-.1-7.5-.1-7.5-.1zM150.3 38.9l-7.1-31.4H137v1.1c2.2 0 1.9 1.8 1.5 3.9l-5.1 25.4c-.7 2.9-1.6 3.4-2.5 3.4v1.1h5.9v-1.1c-2.2 0-2.2-1.8-1.6-4.5l1-5.1h7.4L145 38c.7 2.8-.4 3.3-1.7 3.3v1.1h9v-1.1c-.5-.1-1.4-.3-2-2.4m-13.7-8.8l3.1-15.6 3.5 15.6h-6.6zM311.2 7.5v6.7h1.2c.2-1.3.5-3.3 1.7-4.1 1.2-.8 2.4-.7 4.5-.7v27.5c0 2.7-1.3 4.3-3 4.3v1.1h11v-1.1c-1.6 0-3-1.7-3-4.3V9.4c2 0 3.2 0 4.5.7 1.2.8 1.5 2.7 1.7 4.1h1.2V7.5h-19.8z" fill="#fff" fill-opacity=".5"/></svg>