<svg width="53" height="53" xmlns="http://www.w3.org/2000/svg"><g id="BMW-logo-white-default-53px" stroke="none" stroke-width="1" fill="none" fill-rule="evenodd"><g id="BMW-logo"><g id="BMW-logo-white"><g id="BMW-Logo-103x115-White-NEW" fill-rule="nonzero"><path d="M26.435 0C11.835 0 0 11.836 0 26.435c0 14.599 11.836 26.434 26.435 26.434 14.599 0 26.434-11.835 26.434-26.434C52.87 11.835 41.034 0 26.435 0zM51.15 26.435c0 13.65-11.064 24.715-24.715 24.715S1.719 40.084 1.719 26.435c0-13.65 11.066-24.716 24.716-24.716S51.15 12.785 51.15 26.435z" id="Shape" fill="#FFF"/><g id="Group" transform="translate(7.305 3.109)" fill="#FFF"><path d="M31.941 12.11a23 23 0 011.168 1.386l5.353-3.398c-.268-.35-.694-.881-1.012-1.256l-3.39 2.241-.232.2.173-.252 1.497-2.988-1.059-1.058-2.989 1.497-.251.172.2-.232 2.243-3.388a32.599 32.599 0 00-1.258-1.016l-3.397 5.348c.43.331.998.817 1.36 1.149l3.198-1.66.206-.151-.151.205-1.659 3.202z" id="W_60_"/><path d="M19.795 5.333l1.463-3.277.093-.29-.027.303.154 4.378c.513.048 1.043.12 1.565.207L22.806.169A32.46 32.46 0 0020.62 0l-1.44 3.576-.052.266-.051-.266L17.637 0a32.46 32.46 0 00-2.185.17l-.237 6.484a23.238 23.238 0 011.565-.207l.154-4.378-.027-.303.093.29 1.463 3.277h1.332z" id="M_60_"/><path d="M7.966 10.5c.845-.89 1.324-1.919.478-2.901-.46-.533-1.232-.65-1.873-.387l-.063.025.02-.056c.095-.254.155-1.062-.533-1.62-.336-.272-.757-.373-1.183-.33-.794.081-1.405.624-3.068 2.478A40.07 40.07 0 00.073 9.723l4.568 4.334c1.514-1.676 2.13-2.3 3.325-3.556zM2.005 9.44c.92-1.125 1.898-2.146 2.34-2.55.14-.127.293-.255.478-.305.3-.082.61.13.68.439.069.309-.125.603-.341.845-.487.549-2.271 2.415-2.271 2.415l-.886-.843zm1.789 1.698S5.532 9.3 6.099 8.713c.225-.233.37-.374.525-.45.2-.099.42-.119.616.012a.542.542 0 01.233.572c-.058.262-.272.513-.45.704L4.72 12.016l-.926-.878z" id="B_x5F_22d_60_"/></g><path d="M42.11 26.435H26.436V10.759c8.663 0 15.676 7.012 15.676 15.676zm-15.675 0V42.11c-8.664 0-15.676-7.013-15.676-15.676h15.676z" id="Path" fill="#FFF"/><path d="M26.435 10.759v15.676H10.759c0-8.664 7.012-15.676 15.676-15.676z" id="Path" fill="#0066B1"/><path d="M42.11 26.435c0 8.663-7.012 15.676-15.675 15.676V26.435H42.11z" id="Path" fill="#0066B1"/></g></g></g></g></svg>