<svg id="Layer_1" fill-opacity=".5" data-name="Layer 1" xmlns="http://www.w3.org/2000/svg" viewBox="0 0 1000 177.33"><path d="M569.44 142.34c-.12-.21-.24-.44-.35-.67l-3.66-6.92c-7.82-14.62-14.09-26.86-21-42.72a18.31 18.31 0 012.61-1.25c10.92-5.21 18.15-14.63 18-31-.53-20-18.81-29.91-34.77-29.9h-59.8v117.95h30.06V99.11h17.09c5.71 9.51 17.31 36.53 19.13 40.77l3.54 8h32zM532 78.38c-7.06 8.47-21.65 7.85-31.75 7.82V43S526 39.15 533 51.49c3.68 6.91 4.13 19.91-1 26.89zm-73.51-26.65c-4.91-14.41-15.64-21.82-31.35-21.81h-59v117.91H398v-43.21s42.66 2.35 54.7-13.57c8.98-10.27 9.49-26.65 5.79-39.32zM430.52 83c-7 8.25-22.42 8.15-32.68 7.44l.1-47.28s26.56-3.72 33.58 8.36c4.03 7.25 4.99 23.48-1 31.48zM75.09 37c11.45 13.08 38.84 50 38.84 50 14.1 18.18 32.95 48.4 51.6 63.63V29.92h-16.66v60.82c-11.71-14.94-25.44-34-35.72-46.12-4.53-5.42-16.23-18.08-19.54-20.87C72.17 2.85 32.83-6.52 0 5v1.09c11.28-2.41 25.84-1.53 40.17 4.19C50.88 14.25 66.25 26.16 75.09 37z" fill="#fff"/><path d="M176.58 167.05c-10.71-4-26.08-15.88-34.92-26.75-11.45-13.08-38.84-50-38.84-50-14.1-18.14-32.95-48.3-51.6-63.58v121.12h16.65V86.59c11.72 14.94 25.45 34 35.73 46.12 4.54 5.42 16.23 18.08 19.54 20.87 21.44 20.89 60.78 30.26 93.61 18.81v-1.16c-11.28 2.42-25.84 1.54-40.17-4.18z" fill="#fff"/><path d="M262.94 43.12l.1-13.2h-80.73v117.91H263l-.1-13.19c-15.46.39-34.88 2.84-50.79 1.28V93.58a303.71 303.71 0 0140.53.66v-14c-12.18 1.55-27.53 1.43-40.53.63v-39c15.95-1.59 35.37.96 50.83 1.25zm83.48 47.42C332.78 78.73 316.22 75 304.55 67c-8.21-6.31-6.95-14.48-2.79-18.89 9.82-10.95 30.32-5.78 35.09-4.67 6 1.78 9.28 3.67 15 6.24V34.92c-24.44-7.14-63.57-13.94-79 10.67-5.67 10.12-7.15 28.5 9.18 39.17 16.46 13.09 43.47 19.35 46.84 29.91 2.07 5.78-.43 11.3-4.31 15.22-14.61 13.56-38 5.05-53.18-1.67v14.59c16.38 7.35 37.11 9.22 55.49 5.26 12.62-2.81 26.74-13.92 29-27.62 2.32-13.53-.54-22.35-9.45-29.91zm567.06-62.38c-7.8-.06-58.35.77-58.57 60.27 0 59.07 49.9 61.41 58.57 61.36s58.58-2.29 58.43-61.36c-.08-59.5-50.58-60.33-58.43-60.27zm.19 105.19h-.43c-3.29 0-27.44 1-27.27-47.19.19-44.71 23.66-43.45 27.54-43.44s27.32-1.27 27.49 43.44c.2 48.21-24 47.19-27.33 47.19zM746.72 90.54C733.08 78.73 716.52 75 704.85 67c-8.2-6.31-7-14.48-2.79-18.89 9.82-10.95 30.32-5.78 35.09-4.67 6 1.78 9.28 3.67 15 6.24V34.92c-24.43-7.14-63.57-13.94-79 10.67-5.67 10.12-7.14 28.5 9.18 39.17 16.47 13.09 43.47 19.35 46.84 29.91 2.07 5.78-.43 11.3-4.31 15.22-14.61 13.56-38 5.05-53.17-1.67v14.59c16.38 7.35 37.11 9.22 55.49 5.26 12.62-2.81 26.74-13.92 29-27.62 2.31-13.53-.55-22.35-9.46-29.91zm245.48 46.88c0-2.3-1.31-3-2.2-3.13v-.06a3.57 3.57 0 002.4-3.76c0-2.44-1.6-4-4.79-4h-7.14v14.8h2.62v-6.1h3.8c2.4 0 3 1.23 3 4a4.28 4.28 0 00.35 2.12H993c-.6-.59-.8-2.13-.8-3.87zm-4.9-4.16h-4.21v-4.6h4.21c1.31 0 2.58.4 2.58 2.24 0 1.51-.88 2.36-2.58 2.36z" fill="#fff"/><path d="M985.92 120a14 14 0 1014.08 14 14 14 0 00-14.08-14zm0 26.65a12.65 12.65 0 1112.59-12.69 12.69 12.69 0 01-12.59 12.64zM838.27 90.54C824.67 78.73 808.09 75 796.49 67c-8.23-6.31-7-14.48-2.87-18.89 9.8-10.95 30.29-5.78 35.09-4.67 6.06 1.78 9.32 3.67 15.08 6.24V34.92c-24.5-7.14-63.61-13.94-79 10.67-5.79 10.12-7.23 28.5 9.21 39.17 16.5 13.09 43.52 19.35 46.79 29.91 2.12 5.78-.32 11.3-4.33 15.22-14.54 13.56-38 5.05-53.09-1.67l-.1 14.59c16.43 7.35 37.13 9.22 55.55 5.26 12.67-2.81 26.73-13.92 29.09-27.62 2.16-13.53-.71-22.35-9.64-29.91zm-256.02 57.29h80.67v-13.19c-15.54.39-34.94 2.84-50.81 1.28V93.58a305 305 0 0140.6.66v-14c-12.3 1.55-27.61 1.43-40.64.63v-39c15.87-1.64 35.27.91 50.81 1.2V29.92h-80.63z" fill="#fff"/></svg>